<mxfile host="app.diagrams.net" modified="2023-09-12T18:27:27.825Z" agent="Mozilla/5.0 (Windows NT 10.0; Win64; x64) AppleWebKit/537.36 (KHTML, like Gecko) Chrome/116.0.0.0 Safari/537.36" etag="1_GrH_0LP5wOQxR5Vtmz" version="21.7.4" type="device">
  <diagram name="Página-1" id="h09zXlzUrSCO4i_a4yi9">
    <mxGraphModel dx="1035" dy="553" grid="1" gridSize="10" guides="1" tooltips="1" connect="1" arrows="1" fold="1" page="1" pageScale="1" pageWidth="827" pageHeight="1169" math="0" shadow="0">
      <root>
        <mxCell id="0" />
        <mxCell id="1" parent="0" />
        <mxCell id="e0w6gNFdk2h7FLKsHmW9-37" style="edgeStyle=orthogonalEdgeStyle;rounded=0;orthogonalLoop=1;jettySize=auto;html=1;exitX=1;exitY=0.3333333333333333;exitDx=0;exitDy=0;exitPerimeter=0;entryX=0;entryY=0.5;entryDx=0;entryDy=0;" edge="1" parent="1" source="e0w6gNFdk2h7FLKsHmW9-1" target="e0w6gNFdk2h7FLKsHmW9-25">
          <mxGeometry relative="1" as="geometry" />
        </mxCell>
        <mxCell id="e0w6gNFdk2h7FLKsHmW9-38" style="edgeStyle=orthogonalEdgeStyle;rounded=0;orthogonalLoop=1;jettySize=auto;html=1;exitX=1;exitY=0.3333333333333333;exitDx=0;exitDy=0;exitPerimeter=0;entryX=0;entryY=0.5;entryDx=0;entryDy=0;" edge="1" parent="1" source="e0w6gNFdk2h7FLKsHmW9-1" target="e0w6gNFdk2h7FLKsHmW9-24">
          <mxGeometry relative="1" as="geometry" />
        </mxCell>
        <mxCell id="e0w6gNFdk2h7FLKsHmW9-1" value="Leitor" style="shape=umlActor;verticalLabelPosition=bottom;verticalAlign=top;html=1;outlineConnect=0;" vertex="1" parent="1">
          <mxGeometry y="320" width="160" height="280" as="geometry" />
        </mxCell>
        <mxCell id="e0w6gNFdk2h7FLKsHmW9-32" style="edgeStyle=orthogonalEdgeStyle;rounded=0;orthogonalLoop=1;jettySize=auto;html=1;exitX=0;exitY=0.3333333333333333;exitDx=0;exitDy=0;exitPerimeter=0;entryX=1;entryY=0.5;entryDx=0;entryDy=0;" edge="1" parent="1" source="e0w6gNFdk2h7FLKsHmW9-2" target="e0w6gNFdk2h7FLKsHmW9-28">
          <mxGeometry relative="1" as="geometry" />
        </mxCell>
        <mxCell id="e0w6gNFdk2h7FLKsHmW9-33" style="edgeStyle=orthogonalEdgeStyle;rounded=0;orthogonalLoop=1;jettySize=auto;html=1;exitX=0;exitY=0.3333333333333333;exitDx=0;exitDy=0;exitPerimeter=0;entryX=1;entryY=0.5;entryDx=0;entryDy=0;" edge="1" parent="1" source="e0w6gNFdk2h7FLKsHmW9-2" target="e0w6gNFdk2h7FLKsHmW9-29">
          <mxGeometry relative="1" as="geometry" />
        </mxCell>
        <mxCell id="e0w6gNFdk2h7FLKsHmW9-34" style="edgeStyle=orthogonalEdgeStyle;rounded=0;orthogonalLoop=1;jettySize=auto;html=1;exitX=0;exitY=0.3333333333333333;exitDx=0;exitDy=0;exitPerimeter=0;entryX=1;entryY=0.5;entryDx=0;entryDy=0;" edge="1" parent="1" source="e0w6gNFdk2h7FLKsHmW9-2" target="e0w6gNFdk2h7FLKsHmW9-27">
          <mxGeometry relative="1" as="geometry" />
        </mxCell>
        <mxCell id="e0w6gNFdk2h7FLKsHmW9-35" style="edgeStyle=orthogonalEdgeStyle;rounded=0;orthogonalLoop=1;jettySize=auto;html=1;exitX=0;exitY=0.3333333333333333;exitDx=0;exitDy=0;exitPerimeter=0;entryX=1;entryY=0.5;entryDx=0;entryDy=0;" edge="1" parent="1" source="e0w6gNFdk2h7FLKsHmW9-2" target="e0w6gNFdk2h7FLKsHmW9-23">
          <mxGeometry relative="1" as="geometry" />
        </mxCell>
        <mxCell id="e0w6gNFdk2h7FLKsHmW9-39" style="edgeStyle=orthogonalEdgeStyle;rounded=0;orthogonalLoop=1;jettySize=auto;html=1;exitX=0;exitY=0.3333333333333333;exitDx=0;exitDy=0;exitPerimeter=0;entryX=1;entryY=0.5;entryDx=0;entryDy=0;" edge="1" parent="1" source="e0w6gNFdk2h7FLKsHmW9-2" target="e0w6gNFdk2h7FLKsHmW9-26">
          <mxGeometry relative="1" as="geometry" />
        </mxCell>
        <mxCell id="e0w6gNFdk2h7FLKsHmW9-2" value="Bibliotecário" style="shape=umlActor;verticalLabelPosition=bottom;verticalAlign=top;html=1;outlineConnect=0;" vertex="1" parent="1">
          <mxGeometry x="720" y="310" width="160" height="280" as="geometry" />
        </mxCell>
        <mxCell id="e0w6gNFdk2h7FLKsHmW9-23" value="Registrar Leitor" style="ellipse;whiteSpace=wrap;html=1;" vertex="1" parent="1">
          <mxGeometry x="360" y="200" width="120" height="60" as="geometry" />
        </mxCell>
        <mxCell id="e0w6gNFdk2h7FLKsHmW9-24" value="Empréstimo" style="ellipse;whiteSpace=wrap;html=1;" vertex="1" parent="1">
          <mxGeometry x="360" y="270" width="120" height="60" as="geometry" />
        </mxCell>
        <mxCell id="e0w6gNFdk2h7FLKsHmW9-25" value="Devolução" style="ellipse;whiteSpace=wrap;html=1;" vertex="1" parent="1">
          <mxGeometry x="360" y="340" width="120" height="60" as="geometry" />
        </mxCell>
        <mxCell id="e0w6gNFdk2h7FLKsHmW9-26" value="Livros Disponíveis" style="ellipse;whiteSpace=wrap;html=1;" vertex="1" parent="1">
          <mxGeometry x="360" y="410" width="120" height="60" as="geometry" />
        </mxCell>
        <mxCell id="e0w6gNFdk2h7FLKsHmW9-27" value="Livros Emprestados" style="ellipse;whiteSpace=wrap;html=1;" vertex="1" parent="1">
          <mxGeometry x="360" y="480" width="120" height="60" as="geometry" />
        </mxCell>
        <mxCell id="e0w6gNFdk2h7FLKsHmW9-28" value="Leitores Registrados" style="ellipse;whiteSpace=wrap;html=1;" vertex="1" parent="1">
          <mxGeometry x="360" y="550" width="120" height="60" as="geometry" />
        </mxCell>
        <mxCell id="e0w6gNFdk2h7FLKsHmW9-29" value="Histórico" style="ellipse;whiteSpace=wrap;html=1;" vertex="1" parent="1">
          <mxGeometry x="360" y="620" width="120" height="60" as="geometry" />
        </mxCell>
      </root>
    </mxGraphModel>
  </diagram>
</mxfile>
